<svg xmlns="http://www.w3.org/2000/svg" viewBox="0 0 200 200"><defs><style>.a{fill:#4f4338;}.b{fill:#4c0808;}.c{fill:#d32f2f;}.d{fill:#65717c;}.e{fill:#475056;}.f{fill:#c9c3c1;}.g{fill:#a09993;}.h{fill:#f2efed;}.i{fill:#999fa3;}.j{fill:#f4f1ef;}.k{fill:#d3dde5;stroke:#829499;stroke-miterlimit:10;stroke-width:6px;}.l{fill:#3b83c4;}.m{fill:#84a137;}.n{fill:#e02843;}.o{fill:#ffb230;}.p{fill:#eef4ff;opacity:0.6;}</style></defs><path class="a" d="M109.7,149.57v0h0v0a8.85,8.85,0,0,0-5.55-4.09,17.37,17.37,0,0,0-6.66-.22c1.23,6.45,7.12,10.8,13.2,9.68s10.06-7.29,8.87-13.75a17.52,17.52,0,0,0-6.13,2.57A8.88,8.88,0,0,0,109.7,149.57Z"/><polygon class="b" points="108.52 143.2 108.52 143.2 108.72 144.27 108.52 143.2"/><polygon class="c" points="39.59 155.9 39.59 155.9 39.59 155.9 39.59 155.9"/><path class="d" d="M22.75,47.56l-10.54,1.1A4.48,4.48,0,0,0,8.78,54L28.66,161.7a4.46,4.46,0,0,0,5.08,3.75l61.1-8.73a4.17,4.17,0,0,1,3.61,1.19,15.75,15.75,0,0,0,13.49,3.41c5.28-1,9.48-4.12,11.39-8a4.2,4.2,0,0,1,3-2.41l60.15-13.64c2.36-.44,3.89-2.81,3.3-6L169.88,23.55a4.36,4.36,0,0,0-5-3.07l-9.79,2.66,2.82,4.28.6,2,18.41,96.94"/><path class="e" d="M119.91,140.39l-.4.1c1.18,6.46-2.78,12.63-8.87,13.75s-12-3.22-13.2-9.68l-.41.05"/><polygon class="f" points="39.2 153.84 39.2 153.84 39.2 153.84 39.2 153.84 45.29 142.03 25.71 35.93 22.45 48.63 21.36 54.43 21.2 56.28 39.2 153.84"/><path class="g" d="M108.34,142.23l-.38-2c.12.66.44,2.39.56,3h0l-.18-1,14.42-2-2.8.88a307.55,307.55,0,0,1,57.33-12.4c-3.86-2.4-6.87-5.82-10-9.18l0,.09c-80,16.77-45.17,51.8-75.28-85.38-3,2.21-3,2.61-6.88,1.27,20.51,138.63,40.71,93.85-39.87,106.6V142c-.4.81-6.26,11.71-6.24,12.19l.15-.38-.15.38a180.63,180.63,0,0,1,23.79-5.78,236.08,236.08,0,0,1,34.24-3.13h0"/><polyline class="f" points="159.23 30.81 158.43 28.2 155.38 24.3 147.75 13.4 147.75 13.42 167.32 119.51 173.1 125.65 177.29 128.69"/><path class="g" d="M121.54,140.39l-13.2,1.84.18,1,.2,1.07-.2-1.07-.18-1-.38-2,.38,2L97,145.11l.08.2h0l.4-.05a17.37,17.37,0,0,1,6.66.22,8.85,8.85,0,0,1,5.55,4.09v0h0v0a8.88,8.88,0,0,1,3.72-5.81,17.52,17.52,0,0,1,6.13-2.57c.14,0,.27-.08.41-.1h0Z"/><path class="g" d="M167.32,119.52,147.75,13.43c-19.46,4.13-40.91,9.38-57,21.77l.2,0L109,133.23c2.41,11.63,11.6,1,17.12-.67,12.23-6.36,28.06-9.12,41.22-13Z"/><path class="h" d="M167.34,119.61,148,14.67c-19.46,4.12-40.67,9.17-56.82,21.47l-.06.15,17.9,97c2.39,11.5,11.6.91,17.12-.7,12.24-6.32,28.06-9.08,41.23-12.93Z"/><path class="i" d="M140.33,43.12a132.5,132.5,0,0,0-31.13,9.47c-1.55.68-4.53,3.15-5.43.56h0l-.45-2.44h0c-.12-2.1,4-3.71,5.58-4.28,14.76-5.19,19.88-6.48,30.32-8.66A1.55,1.55,0,0,1,141,38.89C141.48,40.28,142.35,42.68,140.33,43.12Z"/><path class="i" d="M143.23,57.61c-9.49,2.13-19.65,4.4-28.54,8.31q-3.07,1.29-6.06,2.75a1.49,1.49,0,0,1-2.17-1h0L106,65.29h0a1.46,1.46,0,0,1,.81-1.54c1.87-.94,3.78-1.82,5.71-2.66,9.23-4.14,19.47-6.62,29.39-8.71a1.66,1.66,0,0,1,1.86,1.34C144,55,144.91,57.07,143.23,57.61Z"/><path class="i" d="M146.24,72c-11.77,2.72-24.28,5.66-34.93,11.19a1.49,1.49,0,0,1-2.17-1h0l-.45-2.41h0a1.45,1.45,0,0,1,.81-1.54c10.89-5.6,23.09-8.89,35.1-11.35a1.68,1.68,0,0,1,1.86,1.33C146.7,69.39,147.48,71.33,146.24,72Z"/><path class="i" d="M149.05,86.41c-6.84,2.09-14.71,3.15-21.44,5.71A114.55,114.55,0,0,0,114,97.73a1.55,1.55,0,0,1-2.17-1h0c-.09-1.13-1.14-3.32.36-4A118,118,0,0,1,139,83.31l4-.9,4.06-.92a1.66,1.66,0,0,1,2.09,1.29C149.37,83.87,150.13,85.74,149.05,86.41Z"/><path class="g" d="M86.71,36c-19.5-5.82-41.34-3.09-61,0L45.29,142.06l0,.06C59,141,74.75,138,88.45,139.54c5.73-.45,18.13,6.25,16.23-5.48"/><path class="j" d="M45.32,142.19c17.37-1.7,36.1-5,53.47-1.29,3.6.67,7.21-.81,5.9-6.8l-17.9-97L86.7,37c-19.45-5.72-41.13-2.88-60.76.22Z"/><path class="i" d="M41.9,61.28A132.23,132.23,0,0,1,74.36,59c1.69.08,5.35,1.32,5.27-1.41h0l-.45-2.44h0c-.64-2-5-2.06-6.73-2-15.65.42-20.89,1-31.42,2.73a1.55,1.55,0,0,0-1.3,1.69C39.81,59,39.86,61.59,41.9,61.28Z"/><path class="i" d="M44.36,75.85C54,74.45,64.29,73,74,73.43c2.22.07,4.44.21,6.64.41a1.5,1.5,0,0,0,1.69-1.67h0l-.45-2.43h0a1.46,1.46,0,0,0-1.31-1.15c-2.08-.21-4.18-.35-6.28-.44-10.1-.58-20.55.76-30.56,2.35a1.65,1.65,0,0,0-1.26,1.91C42.68,73.73,42.59,76,44.36,75.85Z"/><path class="i" d="M46.68,90.37c12-1.66,24.7-3.38,36.63-2A1.5,1.5,0,0,0,85,86.69h0l-.45-2.42h0a1.46,1.46,0,0,0-1.3-1.15c-12.18-1.35-24.74-.07-36.84,1.93A1.68,1.68,0,0,0,45.14,87C45.33,88.09,45.29,90.19,46.68,90.37Z"/><path class="i" d="M49.2,104.83c7.13-.49,14.87-2.31,22.06-2.31A112.83,112.83,0,0,1,86,102.9a1.56,1.56,0,0,0,1.69-1.68h0c-.32-1.08-.12-3.5-1.75-3.57a118.1,118.1,0,0,0-28.42.69l-4.07.59-4.12.59a1.68,1.68,0,0,0-1.5,2C48,102.58,48,104.59,49.2,104.83Z"/><path class="i" d="M51.82,120.27c.58.53,3.88-.32,4.58-.33a124.14,124.14,0,0,1,32.47-1.41,1.52,1.52,0,0,0,1.69-1.7c-.37-1-.11-3.6-1.77-3.64a115.65,115.65,0,0,0-28.43.59c-2,.3-6.48.94-8.42,1.23a1.51,1.51,0,0,0-1.3,1.7C50.78,117.65,50.82,119.91,51.82,120.27Z"/><ellipse class="d" cx="144.51" cy="86.39" rx="8.08" ry="10.54" transform="translate(46.23 223.09) rotate(-85.16)"/><ellipse class="d" cx="77.69" cy="107.66" rx="10.53" ry="8.08" transform="translate(-51.11 75.48) rotate(-40.16)"/><path class="k" d="M188.34,138.84c-6.29-16.8-12.87-34.06-25.09-47.2-3.72-4-8.22-7.69-13.62-8.55-6.9-1.07-13.73,2.83-18.47,8a27.54,27.54,0,0,1-3.42,3.41,9.23,9.23,0,0,1-.89.6,15.67,15.67,0,0,1-3.15,1.25L112.16,100h0l-.1,0-.1,0h0l-11.53,3.7a15.79,15.79,0,0,1-3.29.8,9.73,9.73,0,0,1-1.08,0,27.73,27.73,0,0,1-4.75-.8c-6.85-1.45-14.67-.69-19.69,4.18-3.91,3.81-5.44,9.43-6.17,14.84-2.37,17.78,2.24,35.67,6.82,53a30.61,30.61,0,0,0,2.82,7.77c3.23,5.53,10.84,8.56,16.48,5.53C95.4,187,97.3,182.75,99.48,179c1.94-3.36,4.11-6.13,6.52-10,1.83-2.92,4.08-6.73,6.89-8.72,3.31-2.35,4.6-2.44,7.1-3.25l9.26-3,9.39-2.91a22,22,0,0,1,7.58-1.42c3.44.14,7.48,1.81,10.66,3.13,4.26,1.78,7.19,2.27,11.1,4.38s8,4.2,12.3,3.67c6.35-.78,10.81-7.65,10.25-14A31.12,31.12,0,0,0,188.34,138.84Z"/><path class="l" d="M144.82,112.37a4.65,4.65,0,1,1-5.84-3A4.64,4.64,0,0,1,144.82,112.37Z"/><path class="m" d="M155.61,116.66a4.66,4.66,0,1,1-6.51-.93A4.66,4.66,0,0,1,155.61,116.66Z"/><path class="n" d="M161.56,105.44a4.65,4.65,0,1,1-6.52-.94A4.66,4.66,0,0,1,161.56,105.44Z"/><path class="o" d="M150.08,99.28a4.65,4.65,0,1,1-6.52-.94A4.65,4.65,0,0,1,150.08,99.28Z"/><path class="d" d="M122.94,126.12c.25.79-.4,1.7-1.45,2l-1.59.5a1.8,1.8,0,0,1-2.36-.82c-.25-.78.41-1.69,1.46-2l1.59-.5A1.79,1.79,0,0,1,122.94,126.12Z"/><circle class="d" cx="110.81" cy="145.99" r="8.17" transform="translate(-68.02 105.87) rotate(-40.16)"/><circle class="d" cx="139.66" cy="136.8" r="8.17" transform="translate(-55.3 122.31) rotate(-40.16)"/><rect class="p" x="72.93" y="116.04" width="29.37" height="29.37" rx="9.07" transform="translate(243.98 112.95) rotate(117.34)"/><rect class="d" x="91.5" y="123.09" width="9.71" height="9.71" rx="4" transform="translate(-34.27 35.25) rotate(-17.66)"/><rect class="d" x="85.44" y="134.29" width="9.71" height="9.71" rx="4" transform="translate(-37.95 33.94) rotate(-17.66)"/><rect class="d" x="74.1" y="128.63" width="9.71" height="9.71" rx="4" transform="matrix(0.95, -0.3, 0.3, 0.95, -36.77, 30.24)"/><rect class="d" x="80.08" y="117.46" width="9.71" height="9.71" rx="4" transform="translate(-33.1 31.52) rotate(-17.66)"/><path class="d" d="M121.56,121.77c.25.79-.4,1.7-1.45,2l-1.59.5a1.81,1.81,0,0,1-2.36-.82c-.25-.78.4-1.7,1.45-2l1.59-.51A1.82,1.82,0,0,1,121.56,121.77Z"/></svg>